<?xml version="1.0" encoding="UTF-8"?>
<svg xmlns="http://www.w3.org/2000/svg" width="64" height="65" viewBox="0 0 64 65" fill="none">
  <path d="M60.1799 59.0149L54.3874 48.9862L55.8887 48.7162C56.6837 48.5712 57.3212 48.1287 57.7374 47.4337C58.1499 46.7374 58.2312 45.9624 57.9737 45.1962L56.8587 41.8574C56.7762 41.6074 56.8187 41.3799 56.9849 41.1799L59.0712 38.6799C59.5862 38.0662 59.7962 37.2911 59.6637 36.5061C59.5362 35.7224 59.0924 35.0587 58.4087 34.6362L55.4099 32.7987C55.1862 32.6612 55.0724 32.4587 55.0712 32.1987L55.0612 28.9349C55.0562 28.1237 54.7287 27.4187 54.1187 26.8974C53.5024 26.3649 52.7537 26.1487 51.9562 26.2712L49.3199 26.6624V6.80115C49.3199 3.27115 46.4487 0.399902 42.9187 0.399902H10.0187C6.48868 0.399902 3.61743 3.27115 3.61743 6.80115V39.7012C3.61743 43.2312 6.48868 46.1024 10.0187 46.1024H29.2862C29.2849 46.5562 29.4024 47.0061 29.6412 47.4324C30.0349 48.1311 30.6824 48.6012 31.4574 48.7549L32.9387 49.0574L27.1924 59.0087C26.8737 59.5512 26.9249 60.2199 27.3299 60.7211C27.7287 61.2036 28.3699 61.3874 28.9612 61.1899L31.8374 60.2387L32.4487 63.2024C32.5737 63.8149 33.0537 64.2787 33.6737 64.3837C33.7599 64.3987 33.8449 64.4049 33.9299 64.4049C34.4587 64.4049 34.9487 64.1262 35.2224 63.6524L40.6362 54.2761L43.4824 52.7324C43.7137 52.6062 43.9374 52.6087 44.1662 52.7399L46.6724 54.1737L52.1474 63.6524C52.4212 64.1262 52.9099 64.4049 53.4424 64.4049C53.5262 64.4049 53.6112 64.3974 53.6962 64.3837C54.3137 64.2787 54.7924 63.8162 54.9162 63.2062L55.5312 60.2399L58.4062 61.1887C58.9999 61.3862 59.6412 61.2037 60.0474 60.7124C60.4374 60.2274 60.4924 59.5624 60.1799 59.0149ZM22.1112 2.4024H30.8312V15.2699L27.6687 12.8462C26.9637 12.3049 25.9787 12.3049 25.2737 12.8462L22.1112 15.2699V2.4024ZM5.61993 39.7012V6.80115C5.61993 4.37615 7.59368 2.4024 10.0187 2.4024H20.1087V15.3374C20.1087 16.0887 20.5274 16.7637 21.2074 17.1049C21.4887 17.2424 21.7849 17.3112 22.0799 17.3112C22.4987 17.3112 22.9124 17.1737 23.2737 16.9012L26.4699 14.4512L29.6699 16.9024C30.2674 17.3574 31.0587 17.4349 31.7449 17.0987C32.4162 16.7599 32.8337 16.0849 32.8337 15.3374V2.4024H42.9199C45.3462 2.4024 47.3187 4.37615 47.3187 6.80115V25.9412L45.7299 24.0574C45.7287 24.0562 45.7274 24.0537 45.7262 24.0524C45.2049 23.4437 44.4812 23.1049 43.6924 23.0999C42.8987 23.0849 42.1649 23.4124 41.6312 24.0112L39.3024 26.6449C39.1287 26.8412 38.9087 26.9174 38.6512 26.8737L35.4362 26.3162C34.6387 26.1824 33.8874 26.3824 33.2674 26.8912C32.6487 27.3937 32.2962 28.1112 32.2749 28.9124L32.1787 32.4349C32.1724 32.6974 32.0574 32.8912 31.8299 33.0237L29.0112 34.6612C28.3237 35.0624 27.8624 35.7149 27.7124 36.5049C27.5674 37.3024 27.7562 38.0562 28.2574 38.6849L30.4487 41.4436C30.6099 41.6449 30.6462 41.8724 30.5587 42.1174L29.8449 44.0987H10.0187C7.59368 44.0999 5.61993 42.1274 5.61993 39.7012ZM34.1449 61.5124L33.6862 59.2911C33.6012 58.8536 33.3412 58.4962 32.9537 58.2812C32.5824 58.0699 32.1537 58.0262 31.7412 58.1612L29.5799 58.8749L35.0037 49.4837C35.2074 49.5499 35.3499 49.6912 35.4274 49.9049L36.5537 52.9662C36.8337 53.7274 37.3824 54.2799 38.1387 54.5637C38.1437 54.5649 38.1487 54.5662 38.1537 54.5686L34.1449 61.5124ZM42.5262 50.9711L39.4787 52.6236C39.4587 52.6336 39.4387 52.6437 39.4199 52.6549C39.2287 52.7561 39.0524 52.7662 38.8449 52.6887C38.6374 52.6112 38.5112 52.4824 38.4337 52.2737L37.3074 49.2136C36.9774 48.3124 36.2487 47.6861 35.3099 47.4962L31.8524 46.7899C31.6399 46.7474 31.4962 46.6424 31.3887 46.4512C31.2774 46.2524 31.2612 46.0724 31.3362 45.8649L32.4412 42.7962C32.7674 41.8924 32.6112 40.9449 32.0137 40.1974L29.8237 37.4399C29.6849 37.2661 29.6412 37.0887 29.6799 36.8724C29.7212 36.6524 29.8262 36.5037 30.0174 36.3924L32.8362 34.7549C33.6674 34.2699 34.1574 33.4412 34.1787 32.4862L34.2749 28.9687C34.2812 28.7449 34.3599 28.5837 34.5337 28.4424C34.6687 28.3312 34.8062 28.2787 34.9649 28.2787C35.0087 28.2787 35.0524 28.2824 35.0999 28.2899L38.3124 28.8462C39.2574 29.0074 40.1624 28.6899 40.7999 27.9737L43.1299 25.3399C43.2774 25.1749 43.4462 25.0962 43.6712 25.1012C43.8912 25.1024 44.0549 25.1799 44.2012 25.3512L46.3012 27.8412C46.8199 28.4537 47.5337 28.7899 48.3037 28.7999C48.3087 28.7999 48.3137 28.8012 48.3187 28.8012C48.3237 28.8012 48.3274 28.8012 48.3312 28.7999C48.4749 28.7999 48.6199 28.7912 48.7662 28.7687L52.2549 28.2512C52.4699 28.2174 52.6412 28.2674 52.8124 28.4162C52.9799 28.5599 53.0549 28.7237 53.0574 28.9449L53.0674 32.2074C53.0724 33.1637 53.5437 34.0012 54.3599 34.5049L57.3574 36.3424C57.5462 36.4599 57.6512 36.6137 57.6862 36.8324C57.7224 37.0524 57.6762 37.2262 57.5324 37.3974L55.4449 39.8999C54.8324 40.6349 54.6537 41.5787 54.9562 42.4911L56.0724 45.8337C56.1437 46.0449 56.1249 46.2236 56.0137 46.4124C55.8987 46.6049 55.7487 46.7086 55.5299 46.7486L52.6874 47.2612C52.6499 47.2662 52.6124 47.2724 52.5749 47.2812L52.3262 47.3262C51.3799 47.4937 50.6362 48.1037 50.2837 48.9974L48.9937 52.2724C48.9124 52.4786 48.7824 52.6049 48.5687 52.6786C48.3637 52.7511 48.1812 52.7337 47.9887 52.6224L45.1562 51.0024C44.3262 50.5249 43.3674 50.5149 42.5262 50.9711ZM55.6262 58.1624C55.2149 58.0249 54.7824 58.0686 54.4062 58.2849C54.0237 58.5012 53.7662 58.8587 53.6849 59.2812L53.2224 61.5112L49.2149 54.5712C49.2212 54.5687 49.2287 54.5674 49.2349 54.5649C49.9912 54.2999 50.5674 53.7449 50.8587 53.0024L52.1487 49.7286C52.1937 49.6124 52.2599 49.5199 52.3424 49.4487L57.7887 58.8774L55.6262 58.1624ZM50.2587 38.9187C50.2587 35.2937 47.3099 32.3437 43.6837 32.3437C40.0562 32.3437 37.1049 35.2924 37.1049 38.9187C37.1049 42.5462 40.0562 45.4974 43.6837 45.4974C47.3087 45.4962 50.2587 42.5449 50.2587 38.9187ZM43.6837 43.4949C41.1599 43.4949 39.1074 41.4424 39.1074 38.9187C39.1074 36.3974 41.1599 34.3461 43.6837 34.3461C46.2049 34.3461 48.2562 36.3974 48.2562 38.9187C48.2562 41.4412 46.2049 43.4949 43.6837 43.4949Z" fill="#1B048A" stroke="#1B048A" stroke-width="0.8"></path>
</svg>
