<?xml version="1.0" encoding="UTF-8"?>
<svg xmlns="http://www.w3.org/2000/svg" width="65" height="44" viewBox="0 0 65 44" fill="none">
  <path d="M6.72865 0.876445V11.4264L7.09115 11.7889C7.57865 12.2639 8.30365 12.2889 8.81615 11.8514L9.16615 11.5514L9.29115 2.71394L39.8537 2.65144V33.6514H28.7037L28.3412 34.0139C27.8287 34.5264 27.8287 35.2764 28.3412 35.7889L28.7037 36.1514H45.6287L45.9912 35.7889C46.5037 35.2764 46.5037 34.5264 45.9912 34.0139C45.6287 33.6514 45.6162 33.6514 44.0537 33.6514H42.4787V8.65144H52.9787L57.2287 12.1764L61.4787 15.6889V33.5264H60.8662C59.9662 33.5264 59.5162 33.6514 59.1787 33.9764C58.7787 34.3889 58.7037 34.8639 58.9537 35.4014C59.2912 36.0889 59.5662 36.1639 61.5162 36.1264L63.2537 36.0889L63.5912 35.7014L63.9412 35.3139L64.0412 25.2389C64.1037 17.8014 64.0912 15.0514 63.9787 14.7264C63.8662 14.3764 63.0037 13.6014 59.2662 10.5014C56.7411 8.42645 54.5162 6.58894 54.3037 6.42645L53.9287 6.15144H42.4787V3.72644C42.4787 2.32644 42.4162 1.15144 42.3412 0.926445C42.0537 0.0889447 43.3912 0.151445 24.5412 0.151445H7.45365L6.72865 0.876445Z" fill="#1B048A"></path>
  <path d="M45.7412 12.3265C45.1162 12.6765 45.1162 12.689 45.1037 18.8015V24.5265L45.4662 24.9265L45.8287 25.339L51.3162 25.3765C54.3287 25.4015 56.9662 25.3765 57.1787 25.339C57.4037 25.3015 57.7287 25.1265 57.9037 24.939L58.2287 24.614V16.4515L57.8912 16.064C57.3787 15.5015 53.9662 12.464 53.6412 12.3015C53.2287 12.0765 46.1412 12.1015 45.7412 12.3265ZM55.7287 17.5515V22.7765H47.7287V14.6515H52.5037L55.7287 17.5515Z" fill="#1B048A"></path>
  <path d="M6.16615 13.4265C5.71615 13.664 5.47865 14.0765 5.47865 14.6015C5.47865 15.0015 5.55365 15.1765 5.86615 15.4765L6.24115 15.839L14.1412 15.8765C18.4912 15.9015 22.2787 15.8765 22.5662 15.839C23.8162 15.664 24.2287 14.1515 23.1912 13.5265C22.8037 13.289 22.5162 13.2765 14.6037 13.2765C8.89115 13.289 6.34115 13.3265 6.16615 13.4265Z" fill="#1B048A"></path>
  <path d="M3.76679 19.239C3.41679 19.3015 2.89179 19.8265 2.82929 20.189C2.72929 20.689 2.96679 21.2765 3.36679 21.514C3.70429 21.7265 4.30429 21.739 11.7793 21.8015C16.2043 21.839 19.9668 21.839 20.1543 21.814C20.3293 21.7765 20.6168 21.6015 20.7918 21.439C21.4168 20.8015 21.0668 19.5265 20.2043 19.3515C19.8668 19.2765 4.16679 19.1765 3.76679 19.239Z" fill="#1B048A"></path>
  <path d="M0.979151 25.314C0.666651 25.414 0.479151 25.6015 0.316651 25.9265C0.0291508 26.5015 0.116651 27.0015 0.554151 27.414L0.879151 27.714L9.11665 27.7515C16.4041 27.7765 17.4167 27.764 17.7792 27.589C18.8291 27.089 18.6541 25.6015 17.5041 25.2765C16.8041 25.089 1.55415 25.114 0.979151 25.314Z" fill="#1B048A"></path>
  <path d="M7.09115 29.2639L6.72865 29.6264V35.3764L7.50365 36.1514H12.3537L12.7412 35.8014C13.2787 35.3264 13.3037 34.5389 12.8037 34.0514C12.4912 33.7264 12.4037 33.7139 10.8787 33.6514L9.29115 33.5889L9.16615 29.5014L8.81615 29.2014C8.30365 28.7639 7.57865 28.7889 7.09115 29.2639Z" fill="#1B048A"></path>
  <path d="M19.1418 32.214C18.0793 32.5015 17.2293 33.0015 16.4668 33.764C13.7418 36.5015 14.3168 40.864 17.6668 42.8765C19.3543 43.9015 21.6793 43.914 23.4293 42.939C24.2168 42.5015 25.2793 41.414 25.6543 40.6765C26.4418 39.1265 26.5668 37.239 25.9918 35.7515C25.4293 34.289 24.0918 32.9515 22.6418 32.4015C21.7043 32.039 20.0418 31.9515 19.1418 32.214ZM21.7168 34.8015C22.2043 34.9515 23.1668 35.789 23.4168 36.289C24.2418 37.864 23.6543 39.8265 22.1043 40.7015C20.0293 41.864 17.3293 40.3015 17.3293 37.9265C17.3293 35.6015 19.4293 34.1015 21.7168 34.8015Z" fill="#1B048A"></path>
  <path d="M50.7912 32.2639C48.2412 33.0264 46.5662 35.2639 46.5787 37.9264C46.5912 41.0764 49.1912 43.6514 52.3662 43.6514C55.2912 43.6514 57.6912 41.5889 58.1287 38.6889C58.7412 34.5389 54.7912 31.0764 50.7912 32.2639ZM54.0912 35.0764C55.4912 35.9764 56.0037 37.7264 55.3037 39.2139C54.1537 41.7014 50.7537 41.7014 49.4412 39.2264C49.0662 38.5139 49.0662 37.1639 49.4412 36.4639C49.7162 35.9389 50.3037 35.3514 50.8787 34.9889C51.6787 34.4889 53.2287 34.5389 54.0912 35.0764Z" fill="#1B048A"></path>
  <path d="M6.72865 0.876445V11.4264L7.09115 11.7889C7.57865 12.2639 8.30365 12.2889 8.81615 11.8514L9.16615 11.5514L9.29115 2.71394L39.8537 2.65144V33.6514H28.7037L28.3412 34.0139C27.8287 34.5264 27.8287 35.2764 28.3412 35.7889L28.7037 36.1514H45.6287L45.9912 35.7889C46.5037 35.2764 46.5037 34.5264 45.9912 34.0139C45.6287 33.6514 45.6162 33.6514 44.0537 33.6514H42.4787V8.65144H52.9787L57.2287 12.1764L61.4787 15.6889V33.5264H60.8662C59.9662 33.5264 59.5162 33.6514 59.1787 33.9764C58.7787 34.3889 58.7037 34.8639 58.9537 35.4014C59.2912 36.0889 59.5662 36.1639 61.5162 36.1264L63.2537 36.0889L63.5912 35.7014L63.9412 35.3139L64.0412 25.2389C64.1037 17.8014 64.0912 15.0514 63.9787 14.7264C63.8662 14.3764 63.0037 13.6014 59.2662 10.5014C56.7411 8.42645 54.5162 6.58894 54.3037 6.42645L53.9287 6.15144H42.4787V3.72644C42.4787 2.32644 42.4162 1.15144 42.3412 0.926445C42.0537 0.0889447 43.3912 0.151445 24.5412 0.151445H7.45365L6.72865 0.876445Z" stroke="#1B048A" stroke-width="0.3"></path>
  <path d="M45.7412 12.3265C45.1162 12.6765 45.1162 12.689 45.1037 18.8015V24.5265L45.4662 24.9265L45.8287 25.339L51.3162 25.3765C54.3287 25.4015 56.9662 25.3765 57.1787 25.339C57.4037 25.3015 57.7287 25.1265 57.9037 24.939L58.2287 24.614V16.4515L57.8912 16.064C57.3787 15.5015 53.9662 12.464 53.6412 12.3015C53.2287 12.0765 46.1412 12.1015 45.7412 12.3265ZM55.7287 17.5515V22.7765H47.7287V14.6515H52.5037L55.7287 17.5515Z" stroke="#1B048A" stroke-width="0.3"></path>
  <path d="M6.16615 13.4265C5.71615 13.664 5.47865 14.0765 5.47865 14.6015C5.47865 15.0015 5.55365 15.1765 5.86615 15.4765L6.24115 15.839L14.1412 15.8765C18.4912 15.9015 22.2787 15.8765 22.5662 15.839C23.8162 15.664 24.2287 14.1515 23.1912 13.5265C22.8037 13.289 22.5162 13.2765 14.6037 13.2765C8.89115 13.289 6.34115 13.3265 6.16615 13.4265Z" stroke="#1B048A" stroke-width="0.3"></path>
  <path d="M3.76679 19.239C3.41679 19.3015 2.89179 19.8265 2.82929 20.189C2.72929 20.689 2.96679 21.2765 3.36679 21.514C3.70429 21.7265 4.30429 21.739 11.7793 21.8015C16.2043 21.839 19.9668 21.839 20.1543 21.814C20.3293 21.7765 20.6168 21.6015 20.7918 21.439C21.4168 20.8015 21.0668 19.5265 20.2043 19.3515C19.8668 19.2765 4.16679 19.1765 3.76679 19.239Z" stroke="#1B048A" stroke-width="0.3"></path>
  <path d="M0.979151 25.314C0.666651 25.414 0.479151 25.6015 0.316651 25.9265C0.0291508 26.5015 0.116651 27.0015 0.554151 27.414L0.879151 27.714L9.11665 27.7515C16.4041 27.7765 17.4167 27.764 17.7792 27.589C18.8291 27.089 18.6541 25.6015 17.5041 25.2765C16.8041 25.089 1.55415 25.114 0.979151 25.314Z" stroke="#1B048A" stroke-width="0.3"></path>
  <path d="M7.09115 29.2639L6.72865 29.6264V35.3764L7.50365 36.1514H12.3537L12.7412 35.8014C13.2787 35.3264 13.3037 34.5389 12.8037 34.0514C12.4912 33.7264 12.4037 33.7139 10.8787 33.6514L9.29115 33.5889L9.16615 29.5014L8.81615 29.2014C8.30365 28.7639 7.57865 28.7889 7.09115 29.2639Z" stroke="#1B048A" stroke-width="0.3"></path>
  <path d="M19.1418 32.214C18.0793 32.5015 17.2293 33.0015 16.4668 33.764C13.7418 36.5015 14.3168 40.864 17.6668 42.8765C19.3543 43.9015 21.6793 43.914 23.4293 42.939C24.2168 42.5015 25.2793 41.414 25.6543 40.6765C26.4418 39.1265 26.5668 37.239 25.9918 35.7515C25.4293 34.289 24.0918 32.9515 22.6418 32.4015C21.7043 32.039 20.0418 31.9515 19.1418 32.214ZM21.7168 34.8015C22.2043 34.9515 23.1668 35.789 23.4168 36.289C24.2418 37.864 23.6543 39.8265 22.1043 40.7015C20.0293 41.864 17.3293 40.3015 17.3293 37.9265C17.3293 35.6015 19.4293 34.1015 21.7168 34.8015Z" stroke="#1B048A" stroke-width="0.3"></path>
  <path d="M50.7912 32.2639C48.2412 33.0264 46.5662 35.2639 46.5787 37.9264C46.5912 41.0764 49.1912 43.6514 52.3662 43.6514C55.2912 43.6514 57.6912 41.5889 58.1287 38.6889C58.7412 34.5389 54.7912 31.0764 50.7912 32.2639ZM54.0912 35.0764C55.4912 35.9764 56.0037 37.7264 55.3037 39.2139C54.1537 41.7014 50.7537 41.7014 49.4412 39.2264C49.0662 38.5139 49.0662 37.1639 49.4412 36.4639C49.7162 35.9389 50.3037 35.3514 50.8787 34.9889C51.6787 34.4889 53.2287 34.5389 54.0912 35.0764Z" stroke="#1B048A" stroke-width="0.3"></path>
</svg>
